<svg id="Layer_2" data-name="Layer 2" xmlns="http://www.w3.org/2000/svg" viewBox="0 0 400 300" width="406" height="306" class="illustration styles_illustrationTablet__1DWOa"><title>PP</title><path d="M197.51,287.46,25,185.51c-5.49-3.08-10.2-8.15-4.85-11.46L193.28,74.27c2.6-1.61,6.54-2.66,9.18-1.13L383.54,178.23c5.49,3.19,6.48,12.1,1,15.29L220.24,287.3A22.94,22.94,0,0,1,197.51,287.46Z" fill="#4444a5"></path><path d="M152.89,137.33s-21.78,3-29-2.34-30.77-22.58-30.77-22.58l3.79-5.16s32,7.22,44.88,6.33S152.89,137.33,152.89,137.33Z" fill="#68e1fd"></path><path d="M152.89,137.33s-21.78,3-29-2.34-30.77-22.58-30.77-22.58l3.79-5.16s32,7.22,44.88,6.33S152.89,137.33,152.89,137.33Z" fill="#363636" opacity="0.61"></path><path d="M175.58,106.42s-3.68-21.67-10.93-27-30.77-22.58-30.77-22.58L130.09,62s16.48,28.34,19.5,40.92S175.58,106.42,175.58,106.42Z" fill="#68e1fd"></path><path d="M175.58,106.42s-3.68-21.67-10.93-27-30.77-22.58-30.77-22.58L130.09,62s16.48,28.34,19.5,40.92S175.58,106.42,175.58,106.42Z" fill="#363636" opacity="0.61"></path><path d="M240.44,196.41A132.8,132.8,0,0,0,272,201.49s-3.75-12.1-14.56-28.66C248.61,177,243.43,186.63,240.44,196.41Z" fill="#68e1fd"></path><ellipse cx="197.58" cy="146.35" rx="15.55" ry="13.68" transform="translate(-37.3 219.06) rotate(-53.73)" fill="#68e1fd"></ellipse><path d="M272,201.49s-22.93-74-118.76-106.28c0,0-18.64-9.38-24.76-.31S135.36,124,135.36,124,195,198.8,272,201.49Z" fill="#68e1fd"></path><path d="M240.44,196.41A132.8,132.8,0,0,0,272,201.49s-3.75-12.1-14.56-28.66C248.61,177,243.43,186.63,240.44,196.41Z" fill="#363636" opacity="0.61"></path><ellipse cx="197.58" cy="146.35" rx="15.55" ry="13.68" transform="translate(-37.3 219.06) rotate(-53.73)" fill="#363636" opacity="0.61"></ellipse><path d="M153.27,95.21s-2.54-14.93-7.53-18.58-21.2-15.56-21.2-15.56l-2.61,3.55s11.35,19.53,13.44,28.19S153.27,95.21,153.27,95.21Z" fill="#68e1fd"></path><path d="M135.51,119.41s-15,2.06-20-1.61-21.2-15.56-21.2-15.56l2.61-3.55s22,5,30.93,4.36S135.51,119.41,135.51,119.41Z" fill="#68e1fd"></path><path d="M153.27,95.21s-2.54-14.93-7.53-18.58-21.2-15.56-21.2-15.56l-2.61,3.55s11.35,19.53,13.44,28.19S153.27,95.21,153.27,95.21Z" fill="#363636" opacity="0.29"></path><path d="M135.51,119.41s-15,2.06-20-1.61-21.2-15.56-21.2-15.56l2.61-3.55s22,5,30.93,4.36S135.51,119.41,135.51,119.41Z" fill="#363636" opacity="0.29"></path><path d="M173.8,118.35s-4.45,1.24-5.69,4.94-2,10.17,0,12.87,6.67,2.95,8.16,1.47,1.24-7.17,1.24-7.17" fill="#421309"></path><path d="M201,129.23s4,14.83-1.48,16.56-25.71-15.33-25.71-15.33l2.22-4" fill="#d26c3b"></path><path d="M201.25,130.07a6.2,6.2,0,0,0-2.76-3.59,15.89,15.89,0,0,0-2.38-1.05,6.36,6.36,0,0,0-1.19-.3h0c-.48-.09-1-.15-1.59-.22a6.68,6.68,0,0,0-4.24,1.76l-.94,1.21a4.47,4.47,0,0,0-.71,2.23,3,3,0,0,0,0,1.6,4.47,4.47,0,0,0,.71,2.23,6.2,6.2,0,0,0,3.16,2.65,4.45,4.45,0,0,0,1.32.69,4.52,4.52,0,0,0,2.31.52,6.09,6.09,0,0,0,1.73-.27l.4-.09a6.12,6.12,0,0,0,3.59-2.76A6.06,6.06,0,0,0,201.25,130.07Z" fill="#d26c3b"></path><path d="M214.09,106.74s9.89.49,9.39,6.67-12.11,22.74-12.11,22.74l-6.67,1.48,2.22-13.6Z" fill="#d77641"></path><path d="M211.37,136.15s9.15,11.86,9.89,13.6,0,7.66-4.94,5.93-13.94-11.62-13.94-11.62l2.32-6.43Z" fill="#421309"></path><path d="M199.75,104l14.34,2.72L206.92,124l-8.65-1.73,2.72,6.92s-9.64-6.43-16.31,6.92c0,0-9.39-9.89-11.86-14.09a22,22,0,0,1-2.72-8.9s13.6,2,18.29-1.24S199.75,104,199.75,104Z" fill="#501a12"></path><path d="M222.47,80s-10-6.11-12.77-8.43A23.13,23.13,0,0,0,203.36,68s-12.45-1.69-17.42-1.27a46.06,46.06,0,0,0-10.46,2.11c-3,.84-21.65,10.43-20.13,11.18s11.54,5.1,11.54,5.1,7.33-3.82,6.91-.86-7.42,23.76-3.71,28.95,22.71.41,25.88-2.55a12.89,12.89,0,0,0,3.78-6.6s-.82-11.32.23-14.19a35.81,35.81,0,0,1,3.8-6.67s10.56,7.63,12.67,6.67S222.47,80,222.47,80Z" fill="#bec2cd"></path><path d="M166.89,85.08s-2.65-5.85-8.29-5-3.24,10.14,2,12.55,11.9,2.72,13.21,4.7,5.08,6.9,7.59,7.32a9.23,9.23,0,0,0,3.87,0,5.38,5.38,0,0,0-.73-4.39c-1.46-2.2-4.29-3.45-3.24-3.87s1.46,1.25,2.93.73,2.35-.84,1.23-1.57-7.08-1.67-9.28-2.61S166.72,87.17,166.89,85.08Z" fill="#d7763f"></path><path d="M216.83,86.44s12.13,4.18,12.34,6,2.09,4.81,3.76,5.65,5.33,2.4,5.54,1.25-1.67-1.57-2.61-2.4-1-1.67-.1-1.67,4.18,1.78,7.11,2,4.5,0,5.12-.42-.84-3.66-2.93-4.39-6.8-.63-8.78-1.36S225.4,80.31,222.47,80,215.16,82.78,216.83,86.44Z" fill="#d7763f"></path><path d="M205.69,62s.21,13.52-8,13.94-7.18-12.46-7.18-12.46a20.88,20.88,0,0,1,6.12.63C199.77,65,205.69,62,205.69,62Z" fill="#d77641"></path><path d="M185.71,62s.1,8.91.84,8.79S187.9,67.69,188,69s.61,3,1.35,3.38S191,70.23,191.3,71s1.64-6.82,1.64-6.82Z" fill="#e2be24"></path><path d="M190.48,63.52S198.29,69,203.36,68s7-2.15,7-2.15,1.06-4-1.69-5.45c0,0,1.68-8.24-8.14-11.4s-14.88,7-15.52,10.77S190.48,63.52,190.48,63.52Z" fill="#501a12"></path><path d="M256.23,223.94s-119.62-15.85-134.31-36.78,1.75-35.36,15.67-31.17S256.23,223.94,256.23,223.94Z" fill="#20204f"></path><path d="M114.5,113.82s2.63,11.17-9.15,13.67c0,0,10.56,1.12,10.35,11.54,0,0-1.31-9.92,8.83-11.54C124.53,127.49,114.33,126.42,114.5,113.82Z" fill="#f9ab2f"></path><path d="M270,89.11s3.51,14.91-12.2,18.23c0,0,14.08,1.5,13.8,15.39,0,0-1.74-13.23,11.78-15.39C283.41,107.34,269.8,105.92,270,89.11Z" fill="#f9ab2f"></path><path d="M257.38,113.33S260,124.5,248.24,127c0,0,10.56,1.12,10.35,11.54,0,0-1.31-9.92,8.83-11.54C267.41,127,257.21,125.93,257.38,113.33Z" fill="#f9ab2f"></path></svg>
