<?xml version="1.0" encoding="UTF-8" standalone="no"?>
<!DOCTYPE svg PUBLIC "-//W3C//DTD SVG 1.1//EN" "http://www.w3.org/Graphics/SVG/1.1/DTD/svg11.dtd">
<svg version="1.1" xmlns="http://www.w3.org/2000/svg" xmlns:xlink="http://www.w3.org/1999/xlink" preserveAspectRatio="xMidYMid meet" viewBox="0 0 512 512" width="512" height="512"><defs><path d="M156.2 261.63L280.89 480.66L223.59 481.21L190.3 422.36L156.77 480.9L128.29 480.88L113.71 455.34L161.48 372.05L127.57 312.21L156.2 261.63Z" id="a2dXD3QAD7"></path><path d="M201.2 171.4L76.49 390.43L47.37 340.37L80.98 281.72L14.23 281.54L0 256.53L14.53 230.95L109.54 231.25L143.69 171.55L201.2 171.4Z" id="a4FQoiqHKl"></path><path d="M210.77 346.49L460.19 346.5L432 397.1L365.09 396.91L398.32 455.62L384.07 480.62L354.96 480.65L307.71 397.06L239.66 396.92L210.77 346.49Z" id="a5hzeoGD3"></path><path d="M355.94 250.52L231.24 31.48L288.55 30.93L321.84 89.78L355.37 31.25L383.84 31.26L398.42 56.81L350.66 140.1L384.57 199.93L355.94 250.52Z" id="a6MjGXEDn"></path><path d="M156.2 261.63L280.89 480.66L223.59 481.21L190.3 422.36L156.77 480.9L128.29 480.88L113.71 455.34L161.48 372.05L127.57 312.21L156.2 261.63Z" id="b2V2kudJ8y"></path><path d="M301.03 165.1L51.62 165.09L79.81 114.49L146.71 114.68L113.48 55.97L127.73 30.97L156.84 30.93L204.09 114.53L272.15 114.67L301.03 165.1Z" id="b2oFOr7e6s"></path><path d="M310.76 340.69L435.48 121.67L464.6 171.72L430.99 230.38L497.74 230.56L511.97 255.57L497.44 281.15L402.42 280.84L368.27 340.54L310.76 340.69Z" id="g14WxbKWMe"></path><path d="M156.34 261.48L281.04 480.52L223.73 481.07L190.44 422.22L156.92 480.75L128.44 480.74L113.86 455.19L161.63 371.9L127.72 312.07L156.34 261.48Z" id="crvEi109h"></path><linearGradient id="gradientaVoVlBytL" gradientUnits="userSpaceOnUse" x1="117.26" y1="268.36" x2="208.58" y2="428.53"><stop style="stop-color: #699ad7;stop-opacity: 1" offset="0%"></stop><stop style="stop-color: #7eb1dd;stop-opacity: 1" offset="24.345198%"></stop><stop style="stop-color: #7ebae4;stop-opacity: 1" offset="100%"></stop></linearGradient><path d="M201.35 171.26L76.63 390.29L47.52 340.23L81.13 281.57L14.37 281.4L0.15 256.39L14.68 230.8L109.69 231.11L143.84 171.41L201.35 171.26Z" id="c8bghzuwJ1"></path><linearGradient id="gradientaVC6tyBfj" gradientUnits="userSpaceOnUse" x1="175.93" y1="140.38" x2="84.81" y2="300.65"><stop style="stop-color: #699ad7;stop-opacity: 1" offset="0%"></stop><stop style="stop-color: #7eb1dd;stop-opacity: 1" offset="24.345198%"></stop><stop style="stop-color: #7ebae4;stop-opacity: 1" offset="100%"></stop></linearGradient><path d="M210.92 346.35L460.33 346.36L432.15 396.96L365.24 396.77L398.47 455.48L384.22 480.48L355.11 480.51L307.86 396.92L239.81 396.78L210.92 346.35Z" id="c15sq7moax"></path><linearGradient id="gradienta2DAfcvM" gradientUnits="userSpaceOnUse" x1="197.25" y1="384.11" x2="379.7" y2="383.99"><stop style="stop-color: #699ad7;stop-opacity: 1" offset="0%"></stop><stop style="stop-color: #7eb1dd;stop-opacity: 1" offset="24.345198%"></stop><stop style="stop-color: #7ebae4;stop-opacity: 1" offset="100%"></stop></linearGradient><path d="M356.09 250.37L231.39 31.34L288.7 30.79L321.99 89.64L355.52 31.1L383.99 31.12L398.57 56.66L350.8 139.95L384.71 199.79L356.09 250.37Z" id="b4HuoPTuy"></path><linearGradient id="gradiente2c3OzBjkN" gradientUnits="userSpaceOnUse" x1="395.17" y1="243.49" x2="303.85" y2="83.33"><stop style="stop-color: #699ad7;stop-opacity: 1" offset="0%"></stop><stop style="stop-color: #7eb1dd;stop-opacity: 1" offset="24.345198%"></stop><stop style="stop-color: #7ebae4;stop-opacity: 1" offset="100%"></stop></linearGradient><path d="M156.34 261.48L281.04 480.52L223.73 481.07L190.44 422.22L156.92 480.75L128.44 480.74L113.86 455.19L161.63 371.9L127.72 312.07L156.34 261.48Z" id="b2tazzWrTz"></path><linearGradient id="gradientf2kqVwx2cI" gradientUnits="userSpaceOnUse" x1="126.7" y1="262.92" x2="216.4" y2="423.7"><stop style="stop-color: #415e9a;stop-opacity: 1" offset="0%"></stop><stop style="stop-color: #4a6baf;stop-opacity: 1" offset="23.168644%"></stop><stop style="stop-color: #5277c3;stop-opacity: 1" offset="100%"></stop></linearGradient><path d="M301 165.01L51.58 165L79.77 114.4L146.67 114.59L113.45 55.88L127.69 30.88L156.81 30.84L204.05 114.44L272.11 114.58L301 165.01Z" id="k7DkiGdHY"></path><linearGradient id="gradienta3kLQdHYZ" gradientUnits="userSpaceOnUse" x1="314.6" y1="138.26" x2="132.43" y2="136.64"><stop style="stop-color: #415e9a;stop-opacity: 1" offset="0%"></stop><stop style="stop-color: #4a6baf;stop-opacity: 1" offset="23.168644%"></stop><stop style="stop-color: #5277c3;stop-opacity: 1" offset="100%"></stop></linearGradient><path d="M310.8 340.57L435.51 121.54L464.63 171.59L431.02 230.25L497.77 230.43L512 255.44L497.47 281.02L402.46 280.72L368.31 340.41L310.8 340.57Z" id="b2DPyEA0I5"></path><linearGradient id="gradientb10Qt2lGOv" gradientUnits="userSpaceOnUse" x1="326.84" y1="365.89" x2="419.31" y2="206.72"><stop style="stop-color: #415e9a;stop-opacity: 1" offset="0%"></stop><stop style="stop-color: #4a6baf;stop-opacity: 1" offset="23.168644%"></stop><stop style="stop-color: #5277c3;stop-opacity: 1" offset="100%"></stop></linearGradient><path d="M237.41 128.49C247.6 126.48 258.65 130.76 264.99 139.15C265.4 139.61 265.65 140.31 266.24 140.55C267.02 140.52 267.75 140.23 268.48 140.02C274.44 138.02 281.04 138.33 286.87 140.59C292.87 142.81 297.92 147.32 301.29 152.8C303.71 156.31 304.94 160.55 305.49 164.77C306.89 164.78 308.23 164.26 309.6 164.02C315.46 162.94 321.69 164.26 326.69 167.54C332.43 171.26 336.66 177.43 337.84 184.3C339.2 190.41 337.95 196.9 335.14 202.4C334.7 203.33 334.15 204.22 333.94 205.24C333.81 205.85 334.41 206.2 334.75 206.59C340.14 211.41 344.48 217.33 348.28 223.51C351.66 228.98 354.38 234.84 356.82 240.8C358.3 245.49 360.14 250.07 361.06 254.92C363.03 264.87 364.07 275.15 362.78 285.26C362.15 291.72 360.3 298.06 357.25 303.76C355.96 306.41 354.09 308.7 352.2 310.92C346.72 316.41 339.4 319.78 331.83 320.86C329.06 321.38 326.24 321.37 323.45 321.55C321.36 323.33 319.74 325.65 317.81 327.63C308.24 337.65 296.39 345.27 283.65 350.34C255.55 361.49 222.77 360.01 195.97 345.79C185.9 340.49 176.75 333.36 169.16 324.76C162 316.68 156.54 307.09 152.86 296.88C149.16 285.35 147.6 272.95 149.41 260.9C149.93 256.63 150.61 252.37 151.97 248.28C153.85 243.25 155.67 238.15 158.36 233.48C160.15 229.89 162.5 226.66 164.71 223.33C166.42 221.23 168.08 219.11 169.77 217C170.85 215.67 172.27 214.69 173.27 213.3C172.65 212.39 171.59 211.95 170.74 211.3C169.32 210.36 168.17 209.05 167.1 207.73C165.46 205.68 163.2 204.27 161.73 202.07C159.1 198.6 157.93 194.21 157.73 189.88C157.77 184.58 159.6 179.21 163.28 175.4C166.85 171.46 172.03 169.3 177.26 169.26C177.4 168.76 177.48 168.25 177.53 167.73C177.85 160.98 180.23 154.26 184.57 149.12C188.37 144.64 193.43 141.21 199.09 139.75C203.95 138.33 209.17 138.4 214.04 139.74C215.49 140.13 216.85 140.87 218.34 141.1C219.31 140.13 220.06 138.96 220.99 137.94C225.24 133.04 231.1 129.64 237.41 128.49M222.11 152.51C221.83 152.77 221.56 153.37 221.09 153.17C219.07 152.57 217.11 151.73 215.01 151.44C207.82 150.36 200.1 152.14 194.41 156.88C192.28 158.65 190.25 160.64 188.78 163.03C186.88 166.45 185.3 170.1 184.51 173.95C184.27 175.38 184.43 176.84 184.16 178.26C182.15 178.61 180.06 178.7 178.14 179.48C174.76 180.64 171.99 183.09 169.82 185.91C167.81 188.88 166.72 192.43 166.4 196C166.27 198.48 166.96 200.91 167.68 203.25C168.19 204.99 169.41 206.38 170.03 208.08C170.55 210.13 172.7 211.07 174.4 211.89C176.09 210.8 177.42 209.25 179 208.01C182.47 205.26 185.94 202.51 189.69 200.16C191.93 199.01 193.95 197.47 196.22 196.39C202.37 193.22 208.75 190.5 215.4 188.64C218.64 187.74 221.94 187.03 225.23 186.34C229.88 185.16 234.68 184.7 239.46 184.53C245.01 184.08 250.58 184.42 256.12 184.8C260.68 185.4 265.31 185.85 269.73 187.24C275.78 188.57 281.73 190.51 287.37 193.15C295.24 196.36 302.49 200.97 309.24 206.16C310.52 207.17 311.87 208.15 312.85 209.49C309.97 214.63 306.89 219.74 305.05 225.39C300.93 236.26 298.59 247.79 297.9 259.41C297.63 268.25 297.79 277.23 300.14 285.8C300.9 288.42 301.57 291.09 302.72 293.57C304.69 297.74 307.08 301.73 310.11 305.18C314.08 308.99 318.92 311.92 324.2 313.36C326.63 313.99 329.04 313.01 331.32 312.22C334.83 311.01 338.13 309.17 341 306.76C345.56 302.79 348.74 297.37 350.59 291.59C351.79 288.1 352.27 284.42 352.72 280.77C352.99 276.36 352.92 271.92 352.79 267.5C352.23 261.07 351.25 254.63 349.31 248.46C346.92 241.16 343.76 234.11 339.83 227.53C336.14 221.51 331.79 215.8 326.43 211.23C325.69 210.77 326.23 209.89 326.55 209.33C328.24 206.63 329.69 203.67 330.17 200.47C330.44 198.22 330.4 195.95 330.31 193.69C330.22 190.63 328.95 187.78 327.5 185.16C323.58 177.93 315.63 173.03 307.48 173.43C305.13 173.28 302.91 174.2 300.59 174.37C299.46 165.79 294.01 157.99 286.47 154.07C281.36 151.32 275.33 150.48 269.67 151.55C268.1 151.82 266.62 152.49 265.05 152.77C263.98 152.17 263.44 150.92 262.59 150.06C256.56 143.51 247.22 140.21 238.54 141.98C232.05 143.28 226.06 147.08 222.11 152.51Z" id="b2l1BlI6S"></path><path d="M262.59 150.06C263.44 150.92 263.98 152.17 265.05 152.77C266.62 152.49 268.1 151.82 269.67 151.55C275.33 150.48 281.36 151.32 286.47 154.07C294.01 157.99 299.46 165.79 300.59 174.37C302.91 174.2 305.13 173.28 307.48 173.43C315.63 173.03 323.58 177.93 327.5 185.16C328.95 187.78 330.22 190.63 330.31 193.69C330.4 195.95 330.44 198.22 330.17 200.47C329.69 203.67 328.24 206.63 326.55 209.33C326.23 209.89 325.69 210.77 326.43 211.23C331.79 215.8 336.14 221.51 339.83 227.53C343.76 234.11 346.92 241.16 349.31 248.46C351.25 254.63 352.23 261.07 352.79 267.5C352.92 271.92 352.99 276.36 352.72 280.77C352.27 284.42 351.79 288.1 350.59 291.59C348.74 297.37 345.56 302.79 341 306.76C338.13 309.17 334.83 311.01 331.32 312.22C329.04 313.01 326.63 313.99 324.2 313.36C318.92 311.92 314.08 308.99 310.11 305.18C307.08 301.73 304.69 297.74 302.72 293.57C301.57 291.09 300.9 288.42 300.14 285.8C297.79 277.23 297.63 268.25 297.9 259.41C298.59 247.79 300.93 236.26 305.05 225.39C306.89 219.74 309.97 214.63 312.85 209.49C311.87 208.15 310.52 207.17 309.24 206.16C302.49 200.97 295.24 196.36 287.37 193.15C281.73 190.51 275.78 188.57 269.73 187.24C265.31 185.85 260.68 185.4 256.12 184.8C250.58 184.42 245.01 184.08 239.46 184.53C234.68 184.7 229.88 185.16 225.23 186.34C221.94 187.03 218.64 187.74 215.4 188.64C208.75 190.5 202.37 193.22 196.22 196.39C193.95 197.47 191.93 199.01 189.69 200.16C185.94 202.51 182.47 205.26 179 208.01C177.42 209.25 176.09 210.8 174.4 211.89C172.7 211.07 170.55 210.13 170.03 208.08C169.41 206.38 168.19 204.99 167.68 203.25C166.96 200.91 166.27 198.48 166.4 196C166.72 192.43 167.81 188.88 169.82 185.91C171.99 183.09 174.76 180.64 178.14 179.48C180.06 178.7 182.15 178.61 184.16 178.26C184.43 176.84 184.27 175.38 184.51 173.95C185.3 170.1 186.88 166.45 188.78 163.03C190.25 160.64 192.28 158.65 194.41 156.88C200.1 152.14 207.82 150.36 215.01 151.44C217.11 151.73 219.07 152.57 221.09 153.17C221.56 153.37 221.83 152.77 222.11 152.51C226.06 147.08 232.05 143.28 238.54 141.98C247.22 140.21 256.56 143.51 262.59 150.06Z" id="ealC6Ulyk"></path></defs><g><g><g><use xlink:href="#a2dXD3QAD7" opacity="1" fill="#5277c3" fill-opacity="1"></use><g><use xlink:href="#a2dXD3QAD7" opacity="1" fill-opacity="0" stroke="#000000" stroke-width="3" stroke-opacity="0"></use></g></g><g><use xlink:href="#a4FQoiqHKl" opacity="1" fill="#7ebae4" fill-opacity="1"></use><g><use xlink:href="#a4FQoiqHKl" opacity="1" fill-opacity="0" stroke="#000000" stroke-width="3" stroke-opacity="0"></use></g></g><g><use xlink:href="#a5hzeoGD3" opacity="1" fill="#7ebae4" fill-opacity="1"></use><g><use xlink:href="#a5hzeoGD3" opacity="1" fill-opacity="0" stroke="#000000" stroke-width="3" stroke-opacity="0"></use></g></g><g><use xlink:href="#a6MjGXEDn" opacity="1" fill="#7ebae4" fill-opacity="1"></use><g><use xlink:href="#a6MjGXEDn" opacity="1" fill-opacity="0" stroke="#000000" stroke-width="3" stroke-opacity="0"></use></g></g><g><use xlink:href="#b2V2kudJ8y" opacity="1" fill="#5277c3" fill-opacity="1"></use><g><use xlink:href="#b2V2kudJ8y" opacity="1" fill-opacity="0" stroke="#000000" stroke-width="3" stroke-opacity="0"></use></g></g><g><use xlink:href="#b2oFOr7e6s" opacity="1" fill="#5277c3" fill-opacity="1"></use><g><use xlink:href="#b2oFOr7e6s" opacity="1" fill-opacity="0" stroke="#000000" stroke-width="3" stroke-opacity="0"></use></g></g><g><use xlink:href="#g14WxbKWMe" opacity="1" fill="#5277c3" fill-opacity="1"></use><g><use xlink:href="#g14WxbKWMe" opacity="1" fill-opacity="0" stroke="#000000" stroke-width="3" stroke-opacity="0"></use></g></g><g><use xlink:href="#crvEi109h" opacity="1" fill="url(#gradientaVoVlBytL)"></use><g><use xlink:href="#crvEi109h" opacity="1" fill-opacity="0" stroke="#000000" stroke-width="3" stroke-opacity="0"></use></g></g><g><use xlink:href="#c8bghzuwJ1" opacity="1" fill="url(#gradientaVC6tyBfj)"></use><g><use xlink:href="#c8bghzuwJ1" opacity="1" fill-opacity="0" stroke="#000000" stroke-width="3" stroke-opacity="0"></use></g></g><g><use xlink:href="#c15sq7moax" opacity="1" fill="url(#gradienta2DAfcvM)"></use><g><use xlink:href="#c15sq7moax" opacity="1" fill-opacity="0" stroke="#000000" stroke-width="3" stroke-opacity="0"></use></g></g><g><use xlink:href="#b4HuoPTuy" opacity="1" fill="url(#gradiente2c3OzBjkN)"></use><g><use xlink:href="#b4HuoPTuy" opacity="1" fill-opacity="0" stroke="#000000" stroke-width="3" stroke-opacity="0"></use></g></g><g><use xlink:href="#b2tazzWrTz" opacity="1" fill="url(#gradientf2kqVwx2cI)"></use><g><use xlink:href="#b2tazzWrTz" opacity="1" fill-opacity="0" stroke="#000000" stroke-width="3" stroke-opacity="0"></use></g></g><g><use xlink:href="#k7DkiGdHY" opacity="1" fill="url(#gradienta3kLQdHYZ)"></use><g><use xlink:href="#k7DkiGdHY" opacity="1" fill-opacity="0" stroke="#000000" stroke-width="3" stroke-opacity="0"></use></g></g><g><use xlink:href="#b2DPyEA0I5" opacity="1" fill="url(#gradientb10Qt2lGOv)"></use><g><use xlink:href="#b2DPyEA0I5" opacity="1" fill-opacity="0" stroke="#000000" stroke-width="3" stroke-opacity="0"></use></g></g><g><use xlink:href="#b2l1BlI6S" opacity="1" fill="#404c9f" fill-opacity="1"></use><g><use xlink:href="#b2l1BlI6S" opacity="1" fill-opacity="0" stroke="#000000" stroke-width="1" stroke-opacity="0"></use></g></g><g><use xlink:href="#ealC6Ulyk" opacity="1" fill="#ffffff" fill-opacity="1"></use><g><use xlink:href="#ealC6Ulyk" opacity="1" fill-opacity="0" stroke="#000000" stroke-width="1" stroke-opacity="0"></use></g></g></g></g></svg>
